<?xml version="1.0" encoding="utf-8"?>
<!-- Generator: Adobe Illustrator 24.2.0, SVG Export Plug-In . SVG Version: 6.00 Build 0)  -->
<svg version="1.1" id="Layer_1" xmlns="http://www.w3.org/2000/svg" xmlns:xlink="http://www.w3.org/1999/xlink" x="0px" y="0px"
	 viewBox="0 0 150 100" style="enable-background:new 0 0 150 100;" xml:space="preserve">
<style type="text/css">
	.st0{fill:#EA3139;}
	.st1{fill:#B6A167;}
	.st2{fill:#003D31;}
	.st3{fill:#FEFEFE;}
	.st4{clip-path:url(#SVGID_2_);fill-rule:evenodd;clip-rule:evenodd;fill:#D11349;}
	.st5{clip-path:url(#SVGID_2_);fill:#D11349;}
	.st6{clip-path:url(#SVGID_2_);fill:none;stroke:#D11349;stroke-width:0.216;stroke-miterlimit:10;}
	.st7{fill-rule:evenodd;clip-rule:evenodd;fill:#D2AE6D;}
	.st8{fill:#848688;}
	.st9{fill-rule:evenodd;clip-rule:evenodd;fill:#BEBFC1;}
	.st10{fill:none;stroke:#848688;stroke-width:1.0001;stroke-miterlimit:2.6131;}
</style>
<g>
	<rect x="65.43" y="46.08" class="st7" width="6.94" height="3"/>
	<path class="st7" d="M121.6,35.92h6.13l13.8,16.94V39.83c0-1.39-0.16-2.26-0.47-2.6c-0.41-0.47-1.06-0.7-1.95-0.7h-0.78v-0.62h7.86
		v0.62h-0.8c-0.95,0-1.63,0.29-2.03,0.86c-0.24,0.36-0.36,1.17-0.36,2.43v19.03h-0.6l-14.89-18.18v13.91c0,1.39,0.15,2.25,0.45,2.6
		c0.42,0.47,1.07,0.7,1.95,0.7h0.8v0.61h-7.85v-0.61h0.78c0.97,0,1.65-0.29,2.05-0.87c0.24-0.35,0.36-1.16,0.36-2.43v-15.7
		c-0.65-0.77-1.15-1.27-1.49-1.52c-0.34-0.24-0.84-0.47-1.49-0.68c-0.32-0.1-0.81-0.15-1.47-0.15V35.92z"/>
	<path class="st7" d="M112.01,57.88v0.61h-9.68v-0.61h0.8c0.93,0,1.61-0.27,2.03-0.82c0.27-0.35,0.4-1.21,0.4-2.56V39.91
		c0-1.14-0.07-1.9-0.22-2.26c-0.11-0.28-0.34-0.52-0.68-0.71c-0.49-0.27-1-0.4-1.53-0.4h-0.8v-0.62h9.68v0.62h-0.82
		c-0.92,0-1.59,0.27-2.01,0.81c-0.28,0.36-0.42,1.21-0.42,2.56V54.5c0,1.14,0.07,1.9,0.22,2.26c0.11,0.28,0.35,0.52,0.7,0.72
		c0.48,0.27,0.98,0.4,1.52,0.4H112.01z"/>
	<path class="st7" d="M90.86,46.92c0,3.86,0.01,7.72,0.01,11.58H72.13v-0.61h0.85c0.95,0,1.64-0.31,2.05-0.93
		c0.23-0.36,0.35-1.18,0.35-2.47V39.91c0-1.41-0.15-2.29-0.46-2.64c-0.43-0.49-1.08-0.73-1.93-0.73h-0.85v-0.62h10.22v0.62
		c-1.2-0.01-2.04,0.1-2.52,0.33c-0.48,0.23-0.81,0.53-0.99,0.89c-0.18,0.35-0.27,1.2-0.27,2.55v14.19c0,0.92,0.09,1.55,0.27,1.9
		c0.13,0.23,0.33,0.4,0.61,0.52c0.28,0.11,1.14,0.16,2.6,0.16h1.65c5.25,0,6.21-5.91,6.34-10.14H90.86z"/>
	<path class="st7" d="M38.2,58.5v-0.61h0.85c0.95,0,1.63-0.31,2.03-0.92c0.24-0.36,0.37-1.19,0.37-2.46V39.91
		c0-1.41-0.16-2.29-0.47-2.64c-0.43-0.49-1.08-0.73-1.93-0.73H38.2v-0.62h9.19c3.37,0,5.94,0.39,7.7,1.15
		c1.76,0.77,3.17,2.05,4.25,3.83c1.07,1.79,1.61,3.85,1.61,6.19c0,3.14-0.96,5.77-2.87,7.88c-2.14,2.35-5.41,3.53-9.79,3.53H38.2z
		 M44.64,56.86c1.41,0.31,2.59,0.47,3.55,0.47c2.57,0,4.71-0.9,6.41-2.72c1.7-1.81,2.55-4.26,2.55-7.36c0-3.11-0.85-5.57-2.55-7.37
		c-1.7-1.8-3.88-2.7-6.54-2.7c-1,0-2.14,0.16-3.42,0.48V56.86z"/>
	<path class="st7" d="M19.39,50.94h-8.74L9.12,54.5c-0.38,0.88-0.57,1.53-0.57,1.97c0,0.34,0.16,0.64,0.49,0.9
		c0.33,0.26,1.03,0.43,2.12,0.51v0.61H4.05v-0.61C5,57.71,5.6,57.5,5.88,57.23c0.57-0.53,1.19-1.61,1.88-3.25l7.95-18.58h0.58
		l7.86,18.78c0.63,1.51,1.2,2.49,1.72,2.94c0.52,0.45,1.24,0.7,2.16,0.76v0.61h-8.91v-0.61c0.9-0.05,1.51-0.2,1.82-0.46
		c0.32-0.25,0.48-0.56,0.48-0.93c0-0.49-0.23-1.26-0.67-2.31L19.39,50.94z M18.92,49.7l-3.83-9.12l-3.93,9.12H18.92z"/>
	<path class="st8" d="M86.09,30.17l-0.02-0.06l-0.03-0.06L86.02,30l-0.01-0.02c0.02-0.04,0.03-0.09,0.03-0.14
		c0-0.16-0.13-0.29-0.29-0.29c-0.16,0-0.29,0.13-0.29,0.29c0,0.16,0.13,0.29,0.29,0.29c0,0,0.01,0,0.01,0l0.03,0.09l0.03,0.11
		l0.02,0.11l0.02,0.12l0.01,0.12l0,0.02l0,0.03l0,0.03l0,0.03l0,0.03l0,0.03l0,0.03l0,0.02l-0.06,0.19l-0.08,0.17l-0.09,0.14
		l-0.11,0.12l-0.12,0.1l-0.14,0.09l-0.17,0.07L84.9,31.8l-0.14,0.01h-0.15l-0.14-0.01l-0.14-0.02l-0.14-0.03l-0.13-0.04l-0.13-0.05
		l-0.13-0.06l-0.08-0.06l-0.08-0.07l-0.07-0.07l-0.07-0.08l-0.06-0.08l-0.06-0.09l-0.06-0.09l-0.05-0.1l-0.02-0.05l-0.02-0.05
		l-0.02-0.04l-0.02-0.05l-0.02-0.06l-0.02-0.07l-0.03-0.08l0.07,0.02l0.2,0.05l0.2,0.03l0.2,0.02l0.2,0l0.2-0.02l0.21-0.04
		l0.22-0.07l0.15-0.08l0.13-0.09l0.12-0.1l0.1-0.11l0.09-0.12l0.08-0.13l0.08-0.14l0.08-0.15l0.06-0.23l0.03-0.22l0-0.22l-0.03-0.21
		l-0.06-0.2l-0.1-0.19l-0.13-0.18l-0.17-0.17l-0.09-0.05l-0.08-0.04l-0.08-0.04l-0.08-0.03l-0.08-0.03l-0.08-0.02l-0.09-0.02
		l-0.1-0.02h-0.28L84,27.76l-0.06,0.01l-0.06,0.01l-0.06,0.01l-0.06,0.02l-0.06,0.02l-0.06,0.02l-0.06,0.02l-0.12,0.06l-0.11,0.07
		l-0.11,0.07l-0.1,0.08l-0.1,0.08l-0.1,0.08l-0.09,0.09l-0.09,0.09l-0.11,0.13l-0.13,0.15l-0.02,0.02l-0.07-0.12l-0.14-0.2
		l-0.16-0.19l-0.18-0.17l-0.2-0.13l-0.22-0.09l-0.25-0.03L81,27.88l-0.13,0.06l-0.11,0.06l-0.09,0.07l-0.08,0.08l-0.07,0.09
		l-0.07,0.1l-0.06,0.11l-0.06,0.13l-0.01,0.03l-0.01,0.02l-0.01,0.02l-0.01,0.02L80.3,28.7l-0.01,0.02l-0.01,0.02l-0.01,0.03v0.24
		l0.04,0.17l0.05,0.16l0.07,0.15l0.08,0.14l0.1,0.13l0.12,0.11l0.14,0.09l0.17,0.07h0.23l0.09-0.03l0.07-0.03l0.07-0.03l0.07-0.04
		l0.07-0.04l0.06-0.05l0.06-0.06l0.02,0.02l0,0l-0.04,0.06l-0.07,0.12l-0.06,0.12l-0.06,0.12l-0.06,0.12l-0.06,0.12l-0.06,0.12
		l-0.07,0.14v0.02l0,0.01l0,0l0,0l0,0.01l-0.02,0.07l0.1,0.03l0.02,0.01l0.02,0.01l0.02,0l0.02,0l0.02,0l0.02,0l0.05-0.01l0.07-0.16
		l0.06-0.12l0.06-0.12l0.06-0.12l0.06-0.12l0.06-0.12l0.07-0.12l0.02-0.04L82.06,30l0.1,0.07l0.1,0.07l0.1,0.07l0.11,0.06l0.11,0.06
		l0.11,0.06l0.08,0.04l0.04,0.16l0.06,0.19l0.07,0.18l0.08,0.18l0.09,0.17l0.11,0.16l0.13,0.15l0.15,0.15l0.08,0.05l0.08,0.04
		l0.08,0.04l0.08,0.04l0.08,0.03l0.08,0.03l0.08,0.03l0.09,0.03l0.08,0.01l0.06,0.01l0.04,0.01l0,0.02h0.58l0.02-0.01l0.02-0.01
		l0.04-0.01l0.05-0.01l0.05-0.01l0.05-0.01l0.05-0.01L85.25,32l0.04-0.02l0.03-0.02l0.03-0.02l0.03-0.02l0.03-0.02l0.03-0.02
		l0.03-0.02l0.04-0.02l0.11-0.09l0.09-0.09l0.08-0.09l0.07-0.09l0.07-0.1L86,31.3l0.05-0.11l0.05-0.13l0.01-0.07l0.01-0.05l0-0.02
		l0.02,0v-0.48l-0.01-0.02l0-0.02l-0.01-0.03l-0.01-0.04l-0.01-0.05l-0.01-0.05L86.09,30.17z M83.94,30.4l-0.12-0.01l-0.12-0.01
		l-0.12-0.02l-0.12-0.02l-0.12-0.03l-0.12-0.03l-0.12-0.04l-0.08-0.03l0-0.01L83,30.16l-0.01-0.05l-0.01-0.05L82.97,30l-0.01-0.05
		l-0.01-0.05l-0.01-0.06l-0.03-0.11l-0.03-0.11l-0.04-0.1l-0.04-0.1l-0.04-0.1l-0.04-0.1l-0.04-0.1l-0.02-0.06l0.17-0.21l0.22-0.23
		l0.23-0.21l0.25-0.17l0.26-0.12l0.28-0.06l0.29,0l0.31,0.08l0.02,0.01l0.03,0.02l0.03,0.02l0.03,0.02l0.03,0.02l0.03,0.02
		l0.03,0.02l0.02,0.01l0.06,0.06L85,28.41l0.05,0.07l0.04,0.07l0.04,0.08l0.03,0.08l0.03,0.08l0.02,0.09l0.01,0.16l-0.01,0.16
		l-0.03,0.15l-0.04,0.15l-0.06,0.14l-0.08,0.14l-0.09,0.13l-0.1,0.13l-0.1,0.08l-0.1,0.07l-0.1,0.06l-0.1,0.05l-0.11,0.04
		l-0.11,0.03l-0.12,0.02L83.94,30.4z M81.16,29.77l-0.02,0l-0.02,0l-0.02,0l-0.01,0l-0.12-0.06l-0.11-0.08l-0.09-0.1l-0.07-0.11
		l-0.06-0.13l-0.04-0.14l-0.03-0.14l-0.01-0.14l0.01-0.09l0.02-0.08l0.02-0.08l0.03-0.07l0.04-0.07l0.05-0.07l0.06-0.07l0.06-0.06
		l0.23-0.12l0.22-0.03l0.2,0.04l0.19,0.1l0.18,0.16l0.17,0.19l0.15,0.21l0.1,0.18l-0.01,0.02l-0.04,0.06l-0.05,0.08l-0.06,0.09
		l-0.07,0.11L82,29.49l-0.04,0.06l0,0l-0.03-0.03l-0.02-0.03l-0.02-0.03l-0.02-0.04l-0.02-0.04l-0.02-0.06l-0.06-0.06l-0.05-0.04
		l-0.05-0.03l-0.05-0.02l-0.05-0.01l-0.05,0h-0.06l-0.19,0l0.05,0.12l0.01,0.02l0.01,0.02l0.02,0.03l0.03,0.04l0.05,0.05l0.07,0.08
		l0.06,0.07l0,0.01l-0.02,0.04l-0.04,0.04l-0.05,0.03l-0.06,0.03l-0.06,0.03l-0.07,0.02l-0.04,0.02l0,0l-0.02,0l-0.02,0L81.16,29.77
		z M82.66,30.04l-0.09-0.05l-0.09-0.05l-0.09-0.06l-0.09-0.06l-0.09-0.06l-0.04-0.03l0.01-0.01l0.04-0.08l0.05-0.09l0.06-0.09
		l0.06-0.08l0.05-0.07l0.01,0.02l0.05,0.12l0.04,0.13l0.04,0.13l0.04,0.13l0.04,0.13l0.02,0.09L82.66,30.04z"/>
	<path class="st8" d="M73.65,30.17l0.02-0.06l0.03-0.06L73.72,30l0.01-0.02c-0.02-0.04-0.03-0.09-0.03-0.14
		c0-0.16,0.13-0.29,0.29-0.29c0.16,0,0.29,0.13,0.29,0.29c0,0.16-0.13,0.29-0.29,0.29c0,0-0.01,0-0.01,0l-0.03,0.09l-0.03,0.11
		l-0.02,0.11l-0.02,0.12l-0.01,0.12l0,0.02l0,0.03l0,0.03l0,0.03l0,0.03l0,0.03l0,0.03l0,0.02l0.06,0.19l0.08,0.17l0.09,0.14
		l0.11,0.12l0.12,0.1l0.14,0.09l0.17,0.07l0.19,0.06l0.14,0.01h0.15l0.14-0.01l0.14-0.02l0.14-0.03l0.13-0.04l0.13-0.05l0.13-0.06
		l0.08-0.06l0.08-0.07l0.07-0.07l0.07-0.08l0.06-0.08l0.06-0.09l0.06-0.09l0.05-0.1l0.02-0.05l0.02-0.05l0.02-0.04l0.02-0.05
		l0.02-0.06l0.02-0.07l0.03-0.08l-0.07,0.02l-0.2,0.05l-0.2,0.03l-0.2,0.02l-0.2,0l-0.2-0.02l-0.21-0.04l-0.22-0.07l-0.15-0.08
		l-0.13-0.09l-0.12-0.1l-0.1-0.11l-0.09-0.12l-0.08-0.13l-0.08-0.14l-0.08-0.15l-0.06-0.23l-0.03-0.22l0-0.22l0.03-0.21l0.06-0.2
		l0.1-0.19l0.13-0.18l0.17-0.17l0.09-0.05l0.08-0.04l0.08-0.04l0.08-0.03l0.08-0.03l0.08-0.02l0.09-0.02l0.1-0.02h0.28l0.06,0.01
		l0.06,0.01l0.06,0.01l0.06,0.01l0.06,0.02l0.06,0.02l0.06,0.02l0.06,0.02l0.12,0.06l0.11,0.07l0.11,0.07l0.1,0.08l0.1,0.08
		l0.1,0.08l0.09,0.09l0.09,0.09l0.11,0.13l0.13,0.15l0.02,0.02l0.07-0.12l0.14-0.2l0.16-0.19l0.18-0.17l0.2-0.13l0.22-0.09
		l0.25-0.03l0.28,0.03l0.13,0.06l0.11,0.06l0.09,0.07l0.08,0.08l0.07,0.09l0.07,0.1l0.06,0.11l0.06,0.13l0.01,0.03l0.01,0.02
		l0.01,0.02l0.01,0.02l0.01,0.02l0.01,0.02l0.01,0.02l0.01,0.03v0.24l-0.04,0.17l-0.05,0.16l-0.07,0.15l-0.08,0.14l-0.1,0.13
		L79,29.89l-0.14,0.09l-0.17,0.07h-0.23l-0.09-0.03l-0.07-0.03l-0.07-0.03l-0.07-0.04l-0.07-0.04l-0.06-0.05l-0.06-0.06l-0.02,0.02
		l0,0l0.04,0.06l0.07,0.12l0.06,0.12l0.06,0.12l0.06,0.12l0.06,0.12l0.06,0.12l0.07,0.14v0.02l0,0.01l0,0l0,0l0,0.01l0.02,0.07
		l-0.1,0.03l-0.02,0.01l-0.02,0.01l-0.02,0l-0.02,0l-0.02,0l-0.02,0l-0.05-0.01l-0.07-0.16l-0.06-0.12l-0.06-0.12l-0.06-0.12
		l-0.06-0.12l-0.06-0.12l-0.07-0.12l-0.02-0.04L77.68,30l-0.1,0.07l-0.1,0.07l-0.1,0.07l-0.11,0.06l-0.11,0.06l-0.11,0.06
		l-0.08,0.04l-0.04,0.16l-0.06,0.19l-0.07,0.18l-0.08,0.18l-0.09,0.17l-0.11,0.16l-0.13,0.15l-0.15,0.15l-0.08,0.05l-0.08,0.04
		l-0.08,0.04l-0.08,0.04l-0.08,0.03l-0.08,0.03l-0.08,0.03l-0.09,0.03l-0.08,0.01l-0.06,0.01l-0.04,0.01l0,0.02h-0.58l-0.02-0.01
		l-0.02-0.01l-0.04-0.01l-0.05-0.01l-0.05-0.01l-0.05-0.01l-0.05-0.01L74.49,32l-0.04-0.02l-0.03-0.02l-0.03-0.02l-0.03-0.02
		l-0.03-0.02l-0.03-0.02l-0.03-0.02l-0.04-0.02l-0.11-0.09l-0.09-0.09l-0.08-0.09l-0.07-0.09l-0.07-0.1l-0.06-0.11l-0.05-0.11
		l-0.05-0.13l-0.01-0.07l-0.01-0.05l0-0.02l-0.02,0v-0.48l0.01-0.02l0.01-0.02l0.01-0.03l0.01-0.04l0.01-0.05l0.01-0.05L73.65,30.17
		z M75.79,30.4l0.12-0.01l0.12-0.01l0.12-0.02l0.12-0.02l0.12-0.03l0.12-0.03l0.12-0.04l0.08-0.03l0-0.01l0.01-0.05l0.01-0.05
		l0.01-0.05L76.77,30l0.01-0.05l0.01-0.05l0.01-0.06l0.03-0.11l0.03-0.11l0.04-0.1l0.04-0.1l0.04-0.1l0.04-0.1l0.04-0.1l0.02-0.06
		l-0.17-0.21l-0.22-0.23l-0.23-0.21l-0.25-0.17l-0.26-0.12l-0.28-0.06l-0.29,0l-0.31,0.08l-0.02,0.01l-0.03,0.02L75,28.19
		l-0.03,0.02l-0.03,0.02l-0.03,0.02l-0.03,0.02l-0.02,0.01l-0.06,0.06l-0.06,0.07l-0.05,0.07l-0.05,0.07l-0.04,0.08l-0.03,0.08
		l-0.03,0.08l-0.02,0.09l-0.01,0.16l0.01,0.16l0.03,0.15l0.04,0.15l0.06,0.14l0.08,0.14l0.09,0.13l0.1,0.13l0.1,0.08l0.1,0.07
		l0.1,0.06l0.1,0.05l0.11,0.04l0.11,0.03l0.12,0.02L75.79,30.4z M77.08,30.04l0.09-0.05l0.09-0.05l0.09-0.06l0.09-0.06l0.09-0.06
		l0.04-0.03l-0.01-0.01l-0.04-0.08l-0.05-0.09l-0.06-0.09l-0.06-0.08l-0.05-0.07l-0.01,0.02l-0.05,0.12l-0.05,0.13l-0.04,0.13
		l-0.04,0.13l-0.04,0.13l-0.02,0.09L77.08,30.04z M78.58,29.77l0.02,0l0.02,0l0.02,0l0.01,0l0.12-0.06l0.11-0.08l0.09-0.1l0.07-0.11
		l0.06-0.13l0.04-0.14l0.03-0.14l0.01-0.14l-0.01-0.09l-0.02-0.08l-0.02-0.08l-0.03-0.07l-0.04-0.07L79,28.42l-0.06-0.07l-0.06-0.06
		l-0.23-0.12l-0.22-0.03l-0.2,0.04l-0.19,0.1l-0.18,0.16l-0.17,0.19l-0.15,0.21l-0.1,0.18l0.01,0.02l0.04,0.06l0.05,0.08l0.06,0.09
		l0.07,0.11l0.08,0.12l0.04,0.06l0,0l0.03-0.03l0.02-0.03l0.02-0.03l0.02-0.04l0.02-0.04l0.02-0.06l0.06-0.06l0.05-0.04l0.05-0.03
		l0.05-0.02l0.05-0.01l0.05,0h0.06l0.19,0l-0.05,0.12l-0.01,0.02l-0.02,0.02l-0.02,0.03l-0.03,0.04l-0.05,0.05l-0.07,0.08
		l-0.06,0.07l0,0.01l0.02,0.04l0.04,0.04l0.05,0.03l0.06,0.03l0.06,0.03l0.07,0.02l0.04,0.02l0,0l0.02,0l0.02,0L78.58,29.77z"/>
	<path class="st9" d="M144.11,69.5c0-0.18-0.09-1.16-1.42-1.16c-0.73,0-1.4,0.37-1.4,1.18c0,0.51,0.34,0.77,0.86,0.9l0.72,0.18
		c0.53,0.13,0.74,0.23,0.74,0.53c0,0.41-0.4,0.59-0.85,0.59c-0.88,0-0.96-0.47-0.99-0.75h-0.6c0.02,0.44,0.13,1.29,1.6,1.29
		c0.84,0,1.47-0.46,1.47-1.22c0-0.5-0.27-0.78-1.04-0.97l-0.62-0.16c-0.48-0.12-0.67-0.19-0.67-0.49c0-0.46,0.55-0.52,0.74-0.52
		c0.79,0,0.87,0.39,0.88,0.62H144.11z M138.62,69.69c-0.05-0.64-0.42-1.35-1.39-1.35c-1.23,0-1.78,0.91-1.78,2.05
		c0,1.07,0.62,1.85,1.66,1.85c1.09,0,1.45-0.83,1.51-1.41h-0.6c-0.11,0.56-0.47,0.87-0.89,0.87c-0.86,0-1.01-0.78-1.01-1.42
		c0-0.66,0.25-1.39,1.02-1.39c0.53,0,0.8,0.3,0.88,0.79H138.62z M132.62,67.78v-0.71h-0.62v0.71H132.62z M132.62,68.45h-0.62v3.69
		h0.62V68.45z M128.07,69.99c0-0.54,0.37-0.99,0.95-0.99h0.23v-0.64c-0.05-0.01-0.09-0.02-0.16-0.02c-0.47,0-0.79,0.29-1.04,0.72
		h-0.01v-0.61h-0.59v3.69h0.62V69.99z M123.82,70.28c0,0.81-0.32,1.43-1,1.43c-0.4,0-1.01-0.26-1.01-1.24c0-0.6,0.1-1.57,1-1.57
		C123.77,68.9,123.82,69.81,123.82,70.28z M121.8,72.14v-0.46h0.01c0.13,0.2,0.39,0.57,1.02,0.57c1.26,0,1.63-1.18,1.63-2.06
		c0-1.04-0.56-1.84-1.55-1.84c-0.43,0.01-0.8,0.18-1.07,0.57h-0.01v-1.84h-0.62v5.07H121.8z M117.43,70.86
		c0,0.49-0.57,0.87-1.15,0.87c-0.47,0-0.67-0.24-0.67-0.64c0-0.47,0.49-0.56,0.79-0.6c0.77-0.1,0.93-0.16,1.03-0.23V70.86z
		 M115.72,69.57c0.04-0.28,0.14-0.71,0.85-0.71c0.59,0,0.87,0.21,0.87,0.6c0,0.37-0.18,0.42-0.33,0.44l-1.03,0.13
		c-1.04,0.13-1.13,0.85-1.13,1.16c0,0.63,0.48,1.07,1.16,1.07c0.72,0,1.1-0.34,1.34-0.6c0.02,0.28,0.11,0.57,0.66,0.57
		c0.14,0,0.23-0.04,0.34-0.07v-0.45c-0.07,0.01-0.15,0.03-0.21,0.03c-0.13,0-0.21-0.06-0.21-0.22v-2.12c0-0.95-1.08-1.03-1.38-1.03
		c-0.92,0-1.5,0.35-1.53,1.23H115.72z M109.88,69.84h2.5v-0.61h-2.5v-1.55h2.84v-0.61h-3.53v5.07h0.69V69.84z M97.99,69.63
		c0-1.05-0.72-1.28-1.3-1.28c-0.64,0-0.99,0.43-1.12,0.63h-0.01v-0.52h-0.59v3.69h0.62v-2.01c0-1,0.62-1.23,0.98-1.23
		c0.61,0,0.79,0.32,0.79,0.97v2.27h0.62V69.63z M89.31,70.29c0-0.49,0.18-1.41,1.08-1.41c0.89,0,1.08,0.92,1.08,1.41
		c0,0.49-0.18,1.41-1.08,1.41C89.49,71.7,89.31,70.78,89.31,70.29z M88.66,70.29c0,0.95,0.54,1.95,1.72,1.95
		c1.18,0,1.72-1,1.72-1.95c0-0.95-0.54-1.95-1.72-1.95C89.2,68.34,88.66,69.34,88.66,70.29z M85.79,67.78v-0.71h-0.62v0.71H85.79z
		 M85.79,68.45h-0.62v3.69h0.62V68.45z M82.08,69.63c0-1.05-0.72-1.28-1.3-1.28c-0.6,0-0.91,0.37-1.09,0.6h-0.01v-1.87h-0.62v5.07
		h0.62v-2.01c0-0.93,0.52-1.23,1.04-1.23c0.6,0,0.74,0.32,0.74,0.83v2.41h0.62V69.63z M76.07,69.5c0-0.18-0.09-1.16-1.42-1.16
		c-0.73,0-1.4,0.37-1.4,1.18c0,0.51,0.34,0.77,0.86,0.9l0.72,0.18c0.53,0.13,0.74,0.23,0.74,0.53c0,0.41-0.4,0.59-0.85,0.59
		c-0.88,0-0.96-0.47-0.99-0.75h-0.6c0.02,0.44,0.13,1.29,1.6,1.29c0.84,0,1.47-0.46,1.47-1.22c0-0.5-0.27-0.78-1.04-0.97l-0.62-0.16
		c-0.48-0.12-0.67-0.19-0.67-0.49c0-0.46,0.55-0.52,0.74-0.52c0.79,0,0.87,0.39,0.88,0.62H76.07z M69.53,70.86
		c0,0.49-0.57,0.87-1.15,0.87c-0.47,0-0.67-0.24-0.67-0.64c0-0.47,0.49-0.56,0.79-0.6c0.77-0.1,0.93-0.16,1.03-0.23V70.86z
		 M67.82,69.57c0.04-0.28,0.14-0.71,0.85-0.71c0.59,0,0.87,0.21,0.87,0.6c0,0.37-0.18,0.42-0.33,0.44l-1.03,0.13
		c-1.04,0.13-1.13,0.85-1.13,1.16c0,0.63,0.48,1.07,1.16,1.07c0.72,0,1.1-0.34,1.34-0.6c0.02,0.28,0.11,0.57,0.66,0.57
		c0.14,0,0.23-0.04,0.34-0.07v-0.45c-0.07,0.01-0.15,0.03-0.21,0.03c-0.13,0-0.21-0.06-0.21-0.22v-2.12c0-0.95-1.08-1.03-1.38-1.03
		c-0.92,0-1.5,0.35-1.53,1.23H67.82z M61.97,69.84h2.5v-0.61h-2.5v-1.55h2.84v-0.61h-3.53v5.07h0.69V69.84z M50.44,68.96v-0.51
		h-0.62v-0.46c0-0.3,0.1-0.43,0.37-0.43c0.08,0,0.18,0.01,0.26,0.01v-0.56c-0.1-0.01-0.19-0.01-0.28-0.01
		c-0.61,0-0.96,0.25-0.96,0.81v0.64h-0.51v0.51h0.51v3.17h0.62v-3.17H50.44z M43.38,70.29c0-0.49,0.18-1.41,1.08-1.41
		c0.89,0,1.08,0.92,1.08,1.41c0,0.49-0.18,1.41-1.08,1.41C43.56,71.7,43.38,70.78,43.38,70.29z M42.73,70.29
		c0,0.95,0.54,1.95,1.72,1.95c1.18,0,1.72-1,1.72-1.95c0-0.95-0.54-1.95-1.72-1.95C43.27,68.34,42.73,69.34,42.73,70.29z M29.37,70
		c0-0.57,0.45-1.1,1.03-1.1c0.76,0,1,0.53,1.04,1.1H29.37z M31.4,70.98c-0.02,0.28-0.37,0.73-0.96,0.73c-0.72,0-1.08-0.44-1.08-1.21
		h2.71c0-1.31-0.53-2.15-1.6-2.15c-1.23,0-1.78,0.91-1.78,2.05c0,1.07,0.62,1.85,1.66,1.85c0.6,0,0.84-0.14,1.01-0.26
		c0.47-0.31,0.64-0.83,0.66-1.01H31.4z M25.89,69.5c0-0.18-0.09-1.16-1.42-1.16c-0.73,0-1.4,0.37-1.4,1.18
		c0,0.51,0.34,0.77,0.86,0.9l0.72,0.18c0.53,0.13,0.74,0.23,0.74,0.53c0,0.41-0.4,0.59-0.85,0.59c-0.88,0-0.96-0.47-0.99-0.75h-0.6
		c0.02,0.44,0.13,1.29,1.6,1.29c0.84,0,1.47-0.46,1.47-1.22c0-0.5-0.27-0.78-1.04-0.97l-0.62-0.16c-0.48-0.12-0.67-0.19-0.67-0.49
		c0-0.46,0.55-0.52,0.74-0.52c0.79,0,0.87,0.39,0.88,0.62H25.89z M20.1,72.14v-3.69h-0.62v2.03c0,0.54-0.23,1.23-1.02,1.23
		c-0.4,0-0.72-0.2-0.72-0.81v-2.45h-0.62v2.65c0,0.88,0.66,1.14,1.21,1.14c0.6,0,0.92-0.23,1.18-0.66l0.01,0.01v0.54H20.1z
		 M11.43,70.29c0-0.49,0.18-1.41,1.08-1.41c0.89,0,1.08,0.92,1.08,1.41c0,0.49-0.18,1.41-1.08,1.41
		C11.61,71.7,11.43,70.78,11.43,70.29z M10.78,70.29c0,0.95,0.54,1.95,1.72,1.95c1.18,0,1.72-1,1.72-1.95
		c0-0.95-0.54-1.95-1.72-1.95C11.32,68.34,10.78,69.34,10.78,70.29z M7.15,69.17H4.49v-2.1H3.81v5.07h0.69v-2.36h2.66v2.36h0.69
		v-5.07H7.15V69.17z"/>
	<polyline class="st10" points="85.64,31.65 95.52,31.65 95.52,63.06 64.12,63.06 64.12,31.65 74.04,31.65 	"/>
	<path class="st10" d="M79.85,30.5c0.74,0,1.34,0.36,1.34,0.81c0,0.45-0.6,0.81-1.34,0.81c-0.74,0-1.34-0.36-1.34-0.81
		C78.51,30.86,79.11,30.5,79.85,30.5z"/>
</g>
</svg>
