<?xml version="1.0" encoding="utf-8"?>
<!-- Generator: Adobe Illustrator 24.2.0, SVG Export Plug-In . SVG Version: 6.00 Build 0)  -->
<svg version="1.1" id="Layer_1" xmlns="http://www.w3.org/2000/svg" xmlns:xlink="http://www.w3.org/1999/xlink" x="0px" y="0px"
	 viewBox="0 0 1200 1200" style="enable-background:new 0 0 1200 1200;" xml:space="preserve">
<style type="text/css">
	.st0{fill-rule:evenodd;clip-rule:evenodd;fill:#806A50;}
	.st1{fill-rule:evenodd;clip-rule:evenodd;fill:#FFFFFF;}
	.st2{fill:#333333;}
	.st3{font-family:'Roboto-Bold';}
	.st4{font-size:76.319px;}
</style>
<g>
	<path class="st0" d="M396.4,209.4h424c32.9,0,59.9,26.9,59.9,59.9v424c0,32.9-26.9,59.9-59.9,59.9h-424
		c-32.9,0-59.9-26.9-59.9-59.9v-424C336.6,236.3,363.5,209.4,396.4,209.4"/>
	<g>
		<path class="st1" d="M546.4,286.2c10.6,0,19.1,8.9,19.1,20c0,11-8.6,20-19.1,20c-10.6,0-19.1-8.9-19.1-20
			C527.3,295.2,535.9,286.2,546.4,286.2"/>
		<path class="st1" d="M670.5,286.2c-10.6,0-19.1,8.9-19.1,20c0,11,8.6,20,19.1,20c10.6,0,19.1-8.9,19.1-20
			C689.6,295.2,681,286.2,670.5,286.2"/>
		<path class="st1" d="M421.3,429.3c15.6,0,28.3,13.3,28.3,29.8c0,16.4-12.7,29.8-28.3,29.8c-15.6,0-28.3-13.3-28.3-29.8
			C393,442.7,405.7,429.3,421.3,429.3"/>
		<path class="st1" d="M795.6,429.3c-15.6,0-28.3,13.3-28.3,29.8c0,16.4,12.7,29.8,28.3,29.8c15.6,0,28.3-13.3,28.3-29.8
			C823.9,442.7,811.2,429.3,795.6,429.3"/>
		<path class="st1" d="M432,288.8c15.6,0,28.3,13.3,28.3,29.8c0,16.4-12.7,29.8-28.3,29.8c-15.6,0-28.3-13.3-28.3-29.8
			C403.7,302.1,416.3,288.8,432,288.8"/>
		<path class="st1" d="M785,288.8c-15.6,0-28.3,13.3-28.3,29.8c0,16.4,12.7,29.8,28.3,29.8c15.6,0,28.3-13.3,28.3-29.8
			C813.2,302.1,800.6,288.8,785,288.8"/>
		<path class="st1" d="M543.1,374c13.6,0,24.5,11.6,24.5,25.8s-11,25.8-24.5,25.8c-13.6,0-24.5-11.6-24.5-25.8S529.5,374,543.1,374"
			/>
		<path class="st1" d="M673.8,374c-13.6,0-24.5,11.6-24.5,25.8s11,25.8,24.5,25.8c13.6,0,24.5-11.6,24.5-25.8S687.4,374,673.8,374"
			/>
		<path class="st1" d="M510.6,538.1c14.1,0,25.5,11.1,25.5,24.8c0,13.7-11.4,24.8-25.5,24.8c-14.1,0-25.5-11.1-25.5-24.8
			C485.2,549.2,496.6,538.1,510.6,538.1"/>
		<path class="st1" d="M706.3,538.1c-14.1,0-25.5,11.1-25.5,24.8c0,13.7,11.4,24.8,25.5,24.8c14.1,0,25.5-11.1,25.5-24.8
			C731.7,549.2,720.3,538.1,706.3,538.1"/>
		<path class="st1" d="M607.9,232.4c14.9,0,27.1,12.7,27.1,28.3c0,15.6-12.1,28.3-27.1,28.3c-14.9,0-27.1-12.7-27.1-28.3
			C580.9,245,593,232.4,607.9,232.4"/>
		<path class="st1" d="M488.7,296c9.2,28.4,23.7,40.5-8.6,60.8c-1.5-2.6-3.1-5.1-4.6-7.7C462.5,327.3,470.4,309,488.7,296"/>
		<path class="st1" d="M728.2,296c-9.2,28.4-23.7,40.5,8.6,60.8c1.5-2.6,3.1-5.1,4.6-7.7C754.4,327.3,746.5,309,728.2,296"/>
		<path class="st1" d="M520.6,330.2c4.7,31.8,15.8,47-14.2,64.3c-1-3-2.1-6-3.1-9C494.5,360.2,503.4,341.7,520.6,330.2"/>
		<path class="st1" d="M696.4,330.2c-4.7,31.8-15.8,47,14.2,64.3c1-3,2.1-6,3.1-9C722.4,360.2,713.5,341.7,696.4,330.2"/>
		<path class="st1" d="M403.3,375.5c43.8-1.7,66.8-17.3,82.7,36.5c-4.3,1.1-8.5,2.3-12.8,3.4C437.2,425.1,414.5,406.6,403.3,375.5"
			/>
		<path class="st1" d="M813.6,375.5c-43.8-1.7-66.8-17.3-82.7,36.5c4.3,1.1,8.5,2.3,12.8,3.4C779.8,425.1,802.4,406.6,813.6,375.5"
			/>
		<path class="st1" d="M477.2,501.7c28.2,4.5,41.8,16.4,56.2-17.2c-2.7-1.1-5.3-2.1-8-3.2C502.9,472.2,486.8,482.4,477.2,501.7"/>
		<path class="st1" d="M739.7,501.7c-28.2,4.5-41.8,16.4-56.2-17.2c2.7-1.1,5.3-2.1,8-3.2C714,472.2,730.1,482.4,739.7,501.7"/>
		<path class="st1" d="M442.6,492.4c28.6-5.3,45.8,1.5,48.2-35.7c-2.9-0.1-5.9-0.2-8.8-0.4C457.3,455.3,445.3,470.6,442.6,492.4"/>
		<path class="st1" d="M774.3,492.4c-28.6-5.3-45.8,1.5-48.2-35.7c2.9-0.1,5.9-0.2,8.8-0.4C759.6,455.3,771.6,470.6,774.3,492.4"/>
		<path class="st1" d="M407.9,585.4c46.2-8.6,74,2.3,77.8-57.8c-4.7-0.2-9.4-0.4-14.2-0.6C431.5,525.4,412.2,550.2,407.9,585.4"/>
		<path class="st1" d="M809,585.4c-46.2-8.6-74,2.3-77.8-57.8c4.7-0.2,9.4-0.4,14.2-0.6C785.4,525.4,804.7,550.2,809,585.4"/>
		<path class="st1" d="M572.1,282.9c3.7,27.2-3.5,43.1,31.5,47.1c0.2-2.8,0.5-5.5,0.7-8.2C606.4,298.4,592.6,286.4,572.1,282.9"/>
		<path class="st1" d="M569.8,350.1c-2,27-12.2,40.9,20.7,51.9c0.8-2.6,1.6-5.2,2.4-7.8C599.6,372.2,588.7,357.8,569.8,350.1"/>
		<path class="st1" d="M647.1,350.1c2,27,12.2,40.9-20.7,51.9c-0.8-2.6-1.6-5.2-2.4-7.8C617.3,372.2,628.2,357.8,647.1,350.1"/>
		<path class="st1" d="M538.5,431.3c6.8,27.9,1.1,45.2,37.8,45.5c0-2.9-0.1-5.8-0.1-8.7C575.8,443.7,560.1,432.8,538.5,431.3"/>
		<path class="st1" d="M678.4,431.3c-6.8,27.9-1.1,45.2-37.8,45.5c0-2.9,0.1-5.8,0.1-8.7C641.1,443.7,656.8,432.8,678.4,431.3"/>
		<path class="st1" d="M657.2,510.6c13.2-10,24.8-24,34.2-42.7c21.3-18.5,52.9-18.1,93.5-7.1c-19.1-16.7-44.9-25.3-89.7-11.8
			c16-35.9,47.1-45.2,83.2-56.3c-20.9,0.6-41.7,3.9-62.6,15.2c7.6-29.4,26.6-55.6,48.8-81.1c-28.3,16.4-54.6,57.3-79.6,116.3
			c-14,31.7-32.6,50.5-53.1,63.1l-1.4,2.8c11.3-29,13.6-54.1,7.3-75.2c-7.5-25.4-25.4-72-26.9-104.3c-4.7,70.2,37.5,115.4,1.8,181.3
			l-4.4,7.5l-4.5-7.5c-35.6-65.9,6.6-111.1,1.8-181.3c-1.4,32.2-19.3,78.8-26.9,104.3c-6.3,21.1-4,46.3,7.3,75.2l-1.4-2.8
			c-20.5-12.7-39-31.4-53.1-63.1c-24.9-59-51.3-99.9-79.6-116.3c22.1,25.5,41.1,51.7,48.8,81.1c-20.9-11.2-41.8-14.6-62.6-15.2
			c36.1,11.1,67.1,20.5,83.2,56.3c-44.7-13.6-70.6-4.9-89.7,11.8c40.6-11,72.3-11.4,93.5,7.1c9.5,18.7,21,32.6,34.2,42.7
			c-13.8-2.2-28.1-3.9-45.7-1c-25.3,8.8-41.2,23.6-59.6,36.7c7.2-1.7,14.5-3.4,21.7-5.1c17.7-12.6,36.5-20.3,57.1-19.3
			c-6.8,3.9-29.8,21.3-29.9,28.6c2.2,2.1,4.4,4.2,6.6,6.3c12.3-23.9,72.6-46.7,76.3-5.1v14.1l0.1-0.2l0.8,136.8
			c-26,43.8-56.1,47-91.1,50.8h112.5v-0.1h0.1v0.1h112.5c-35.1-3.8-65.2-7-91.1-50.9l0.8-136.6l0.1,0.2v-14.1
			c3.7-41.6,64-18.8,76.3,5.1c2.2-2.1,4.4-4.2,6.6-6.3c-0.1-7.3-23.1-24.7-29.9-28.6c20.6-1,39.4,6.7,57.1,19.3
			c7.2,1.7,14.5,3.4,21.7,5.1c-18.4-13.2-34.2-27.9-59.6-36.7C685.3,506.7,671,508.4,657.2,510.6z M587,510.6l-0.7-1.4l1,1.4H587z
			 M658.7,748.8H562c17.2-5.1,32.1-14.7,41.5-33.7c2,11.2,3.9,22.5,5.9,33.7c1.9-11.1,3.8-22.2,5.9-33.3
			C624.5,737.5,640.6,745.2,658.7,748.8z M629.9,510.6h-0.2l1-1.4L629.9,510.6z"/>
		<path class="st1" d="M644,282.9c-3.7,27.2,3.5,43.1-31.5,47.1c-0.2-2.8-0.5-5.5-0.7-8.2C609.8,298.4,623.6,286.4,644,282.9"/>
	</g>
	<path class="st2" d="M792.1,814.9h26.5l18.4,58.9l18.2-58.9h25.7l-30.4,81.9h-27.4L792.1,814.9z M762.6,865.6l-9.1-29.4l-9,29.4
		H762.6z M767.9,883.3h-28.8l-4,13.5h-25.9l30.8-81.9h27.6l30.8,81.9H772L767.9,883.3z M622.4,814.9h25.3v28.7h27.7v-28.7h25.4v81.9
		h-25.4v-33.1h-27.7v33.1h-25.3V814.9z M558.9,833.5v44.7h6.2c5.3,0,9.1-0.6,11.3-1.7c2.2-1.2,4-3.2,5.3-6.1
		c1.3-2.9,1.9-7.7,1.9-14.2c0-8.7-1.4-14.6-4.2-17.8c-2.8-3.2-7.5-4.8-14.1-4.8H558.9z M533.6,814.9h37.6c7.4,0,13.4,1,18,3
		c4.6,2,8.3,4.9,11.3,8.7c3,3.8,5.1,8.1,6.5,13.1c1.3,5,2,10.3,2,15.9c0,8.8-1,15.5-3,20.4c-2,4.8-4.7,8.9-8.3,12.1
		c-3.5,3.3-7.3,5.4-11.4,6.5c-5.5,1.5-10.6,2.2-15.1,2.2h-37.6V814.9z M489.4,865.6l-9.1-29.4l-9,29.4H489.4z M494.7,883.3h-28.8
		l-4,13.5H436l30.8-81.9h27.6l30.8,81.9h-26.5L494.7,883.3z M336,814.9h33.3l12.9,49.8l12.8-49.8h33.2v81.9h-20.7v-62.4l-16,62.4
		h-18.7l-16-62.4v62.4H336V814.9z"/>
	<text transform="matrix(1 0 0 1 158.1904 989.583)" class="st2 st3 st4">CONSULTING &amp; SERVICES</text>
</g>
</svg>
