<svg id="Layer_1" data-name="Layer 1" xmlns="http://www.w3.org/2000/svg" viewBox="0 0 1200 1200"><defs><style>.cls-1{fill:#265c66;}.cls-1,.cls-2{fill-rule:evenodd;}.cls-2,.cls-3{fill:#052043;}</style></defs><path class="cls-1" d="M586.22,416.28c-1.29-178.6,2.18-177.11,213.4-172.11,8,45,4.09,106.25-14,140.19,42.5-2.72,63.22-17,73.13-52,8.76-30.88,6.37-91.18,6.63-125.18C750,210.91,648.57,195.58,586.16,231.65l-1,.59c-1.43.85-2.85,1.72-4.24,2.62l-.48.32c-1.52,1-3,2-4.46,3.07l-.17.12C537.92,266,518.65,317,527.1,409.8c13.78.18,27.7.71,41.11,2.83q9.21,1.44,18,3.65"/><path class="cls-2" d="M337,677.93c60.66-2.07,188.28,5.14,237.82-5.12a122.76,122.76,0,0,1-33.41-29.65c-8-.2-19,.23-36,.26-33.29.07-71.76,1.73-104.43-.72-1.66-65.62-5.93-89.93,16-145.57-97.62,3-78.43,93.51-80,180.8"/><path class="cls-2" d="M673.37,382.33c.51-27-2.6-94.83-21.13-117.55-11.78,2.19-23.7,6.1-31,13.58-6.62,6.78-10.23,17.12-12.37,27.39,1.46,11.55,4.79,24.11,7.12,37.06,5.78,31.87,22.23,45.57,57.4,39.52"/><path class="cls-2" d="M648.93,624.54c38.35-40.83,52.37-172.68-83.52-194.11-48.65-7.67-121.25,7.52-148.38-27C396.79,377.69,400.38,285,401.18,246c25.56-5,79.67-2,108.33-2,15,0,25.24.29,32.91.11a160.9,160.9,0,0,1,18.79-17.35,131.27,131.27,0,0,1,16-10.84C527,205.29,390.49,206.72,337,207.28,342.11,354.46,315.18,452.21,458.48,459c15.79.76,33.5.85,51.2,1.86l20,1.61,1.89.23c23,2.68,44.55,8.13,60.43,19.91l.11.07.89.67,0,0,1,.75c.63.5,1.25,1,1.86,1.55l.37.32,1.06.93,4.55,4.18.1.6c15.06,17.17,21.19,43.87,11.65,85.71-.62,2.74-1.63,5.74-2.63,8.93,3.27,12.22,8.42,23,16.53,29.27,5.68,4.4,13.3,7.17,21.49,8.91"/><path class="cls-1" d="M802.4,644.1C644.87,642.44,589.06,672.68,586.94,530c-.18-12.4-.58-22.09-1.88-29.73-12.82-11.73-34.52-17.17-57.5-19.83-.45,63.66-8.6,155.1,78.86,187.71C638.23,680,782.67,677,865.48,677.78c.42-83.22,2.08-167.27-17.65-202.38-29.94-53.32-107.72-47.87-179-48.55C686.22,496,744.42,433,785.1,485.42c23,29.68,16.8,116,17.3,158.68"/><path class="cls-2" d="M129,884.22c7.81,0,17.43-1.2,26.15-6.45,11.26-6.61,15.92-16.84,15.92-27.19,0-15.18-6.61-24.5-27.64-38.47L135.81,807c-10.22-6.91-12-12.77-12-17.88,0-6.9,4.5-13.82,16.83-13.82,10.8,0,17.71,5.11,20.58,9.92a20.75,20.75,0,0,1,2.69,8.71c.31,2.41.92,2.86,1.67,2.86,1.19,0,1.65-1.06,1.65-3.76,0-13.38.29-16.38.59-21.18,0-1.21-.45-1.66-2-2.11a61.56,61.56,0,0,0-7.36-1.79,81.87,81.87,0,0,0-17.28-1.51c-24,0-38.31,14-38.31,31.24,0,13.23,5.11,23.75,23.44,36.66l9.31,6.46c12.77,8.72,14,14,14,20.28,0,6.46-4.36,13.83-18.63,13.83-11.72,0-23-7.07-25.55-19.38a29.92,29.92,0,0,1-.74-4.66c-.16-1.2-.3-2.55-1.36-2.55-.9,0-1.49.9-1.79,3.6a189,189,0,0,0-.92,22.09c0,3,.76,5,3.32,6,5.85,2.71,13.82,4.21,25.08,4.21M273.54,851a1.28,1.28,0,0,1,1.2.91l10.07,23.89c.45,1.35-.16,2.4-1.81,2.71-1.35.29-2.1.9-2.1,1.79s.9,1.35,3.3,1.35c9.62.16,26.74.46,41.47.46,2.85,0,3.91-.46,3.91-1.5s-.91-1.51-2.87-1.51a31,31,0,0,1-4.79-.59c-5.26-.75-8.56-4.36-13.67-16.08-10.23-22.84-35.46-80.37-39.37-88.79-2.55-5.41-3.91-7.51-5.41-7.51-1.66,0-3.31,2.24-6.16,8.72L217.2,865.6c-3.16,7.21-6.16,11.86-11.43,12.92a44.16,44.16,0,0,1-4.79.59c-1.81,0-2.86.31-2.86,1.51,0,.9.9,1.5,3,1.5,7.52,0,17.43-.46,19.08-.46,8,0,13.08.46,19.84.46,1.94,0,3.14-.3,3.14-1.5,0-.75-.44-1.51-2.69-1.51-1.2-.15-3.61-.3-5.26-.59-3.16-.31-4.5-1.67-4.5-4.51a33.82,33.82,0,0,1,2.39-9.62l4.66-12.32c.3-.75.61-1.06,1.35-1.06Zm-30.05-12c-.45,0-.75-.3-.6-.75l12.77-32.15c.3-.75.6-1.06,1,0l13.23,32.15c.14.31.14.75-.76.75Zm124.36-.44c0,12.92-.3,23.58-.75,30.79-.45,5.85-2,8.72-5,9.17a41.3,41.3,0,0,1-4.66.59c-1.65,0-2.85.45-2.85,1.51,0,.75.45,1.5,3,1.5,4.2,0,6.16-.16,10.36-.3s7.82-.16,11.42-.16c2.86,0,9,.46,14.88,1.06,4.95.45,10.05.6,16.06.6,30.2,0,44-10.36,51.39-17.88,8.56-8.11,16.53-23,16.53-41.16,0-17.88-6.77-30.49-14.43-38.17-13.67-14-33.81-17.26-59.5-17.42-12.61.16-19.38.3-24.33.3-6.61,0-20.44-.45-24.19-.45-2.55,0-3.45.45-3.45,1.35s.6,1.5,2.84,1.65c2.87.31,4.36.31,5.58.45,5.69.61,6.44,4.66,6.75,9,.3,4.81.3,9,.3,31.1Zm26.59-28.85c0-12.17.31-23,.15-28.1,0-1.35.16-2.1,1.36-2.7,1.35-.75,4.81-1.2,8.11-1.2,9.91,0,24.19,2.85,34.56,16.37a58.91,58.91,0,0,1,11.25,34.41c0,14.12-1.94,27.49-9.76,35.3-7.95,8.27-16.83,10.51-27.34,10.51-6.61,0-12.77-2.1-15.47-5.4-1.66-1.65-2.26-4.66-2.55-10.82-.16-2.85-.31-13.22-.31-29.14Zm238.24,47.17c0-7.36.16-15.18.45-20,.45-5.26,2.1-6.91,5.72-7.66,1.49-.14,3.45-.45,4-.45,1.51-.15,2.42-.45,2.42-1.49,0-1.21-1.22-1.51-3.46-1.51-8.11,0-17.88.45-23.29.45-4.06,0-15.63-.45-25.39-.45-2.41,0-3.16.6-3.16,1.51s1.22,1.49,2.4,1.49c2.57.31,4.51.45,6.47.76,5.11.75,7.06,3.91,7.06,12.46.15,5.57.15,11.43.15,17.59v9.17a4.76,4.76,0,0,1-1.8,4c-2.26,1.65-6.31,1.8-8.41,1.8-31.55,0-44.47-28.7-44.47-55.59,0-14.72,3.59-25.84,9.46-32.45,6.76-7.66,15.77-10.81,26.89-10.81,20.89,0,34.26,7.21,37.11,17.42a22.48,22.48,0,0,1,1.8,7.51c.16,1.21.75,2.41,1.81,2.41s1.65-.75,1.65-3.16c0-20,1.35-26.14,1.65-27.64.15-1.35-.16-2-1.5-2-4.36-.15-9.32-1.2-14.43-1.8a154.76,154.76,0,0,0-24.33-2.1c-11.42,0-27.64.74-43.12,9.91-14,8-27,23.9-27,49,0,40,29.3,58.89,71.5,58.89,13.53,0,28.85-2.56,36.82-5.7,2.71-1.06,3-2,3-10.82Zm85.46-44.77c0-19.23.14-26.29.45-31.1s1-8,5.24-8.86c1.51-.3,3.62-.45,5-.61,2-.15,2.71-.45,2.71-1.65,0-.9-.76-1.35-3.32-1.35-5.4,0-23.28.45-24.48.45-1.36,0-16.52-.45-23-.45-2.86,0-4.06.45-4.06,1.35s.9,1.5,3.16,1.65a36.27,36.27,0,0,1,6.46,1.06c3.45,1,4.34,3,4.65,7.21.45,4.81.45,9,.45,32.3V835c0,21.63,6,32.59,14,39.21,9.31,8.11,22.53,10.06,35.74,10.06,10.23,0,21.94-2.1,31.26-9.92,14.57-11.86,15.32-30.34,15.32-47.46V812.11c0-22.09.15-26,.45-30.81.45-6.15,1.65-8.4,5.71-9.15a32.16,32.16,0,0,1,4.66-.61c2-.15,2.55-.74,2.55-1.49,0-1.06-.9-1.51-3.16-1.51-7.36,0-17.12.45-19.82.45-2.41,0-11.58-.45-20.14-.45-2.71,0-3.45.6-3.45,1.51s.74,1.49,2.7,1.49c3,.31,3.91.31,5.56.61,5,.9,6.17,3.45,6.46,9.15.3,4.81.3,8.72.3,30.81v18c0,15.47,0,31.24-8.41,38.46-5.26,4.5-11.72,5.56-16.53,5.56a24.91,24.91,0,0,1-15-4.2c-8.27-5.87-11.41-14.59-11.41-35.32Zm132.17,26.45c0,14.57-.16,25.08-.75,31.4-.45,5.1-1.65,7.81-4.67,8.56-1.65.29-3.6.44-5.11.59s-2.7.45-2.7,1.51.76,1.5,3,1.5c5.11,0,19.68-.46,21.49-.46,1,0,17.42.46,27.49.46,2.1,0,3.16-.46,3.16-1.35s-.31-1.5-2.71-1.66a37.38,37.38,0,0,1-6.77-.9c-4.5-1.05-5.56-4.36-5.85-8.25-.75-6.32-.75-13.38-.75-25.25v-7.66c0-.9.45-1.2,1.2-1.2h9.91a2.36,2.36,0,0,1,1.81.9c2.69,4,6.16,10.21,13.06,21.64,5.87,9.45,10.68,15.91,15.47,18.77,5.27,3.46,11.88,5,27.35,5h13.52c1.51,0,3-.16,3-1.5,0-.9-.91-1.51-2.57-1.51-1.2-.15-2.09-.15-3.75-.45-4.21-.59-7.82-3.15-15.77-12-9.17-10.51-20.13-26.59-29.3-39.8,12.92-8,20.13-17.58,20.13-30.2a25.51,25.51,0,0,0-13.67-23c-6.61-3.76-16.53-5.11-30.65-5.11-6.91,0-21.33.45-24.19.45-2.1,0-16.52-.45-23-.45-2.26,0-3.31.45-3.31,1.35s.9,1.5,2.7,1.65c1.36.16,3.76.16,6,.61,3.61.75,5.42,2.71,5.72,8.86.14,4.81.45,7.81.45,31.1Zm25.84-58.15c0-1.19.29-1.35.9-1.66,1-.45,3.6-.59,6-.59,7.81,0,21.33,5.56,21.33,26.88,0,10.07-2.71,16.53-5.86,18.93-2.41,1.81-5.41,2.41-9.46,2.41-4.2,0-8.72-.45-11.57-2a2.18,2.18,0,0,1-1.35-2.24Zm140.28,31.7c0-19.23.16-26.29.45-31.1s1.06-8,5.26-8.86c1.5-.3,3.61-.45,4.95-.61,2-.15,2.71-.45,2.71-1.65,0-.9-.75-1.35-3.3-1.35-5.41,0-23.29.45-24.49.45s-16.53-.45-23-.45c-2.85,0-4.06.45-4.06,1.35s.9,1.5,3.16,1.65a36.13,36.13,0,0,1,6.46,1.06c3.46,1,4.36,3,4.66,7.21.45,4.81.45,9,.45,32.3V835c0,21.63,6,32.59,14,39.21,9.31,8.11,22.53,10.06,35.76,10.06,10.21,0,21.94-2.1,31.25-9.92C1085.24,862.44,1086,844,1086,826.84V812.11c0-22.09.14-26,.44-30.81.45-6.15,1.66-8.4,5.71-9.15a31.87,31.87,0,0,1,4.65-.61c2-.15,2.56-.74,2.56-1.49,0-1.06-.91-1.51-3.15-1.51-7.36,0-17.12.45-19.83.45-2.4,0-11.57-.45-20.14-.45-2.7,0-3.45.6-3.45,1.51s.75,1.49,2.7,1.49c3,.31,3.91.31,5.56.61,5,.9,6.16,3.45,6.46,9.15.31,4.81.31,8.72.31,30.81v18c0,15.47,0,31.24-8.42,38.46-5.27,4.5-11.71,5.56-16.52,5.56a25,25,0,0,1-15-4.2c-8.25-5.87-11.41-14.59-11.41-35.32Z"/><path class="cls-2" d="M415.07,979.08c0-3.78.08-7.79.23-10.26.23-2.7,1.07-3.55,2.93-3.94.77-.07,1.78-.23,2.09-.23.76-.08,1.22-.23,1.22-.76s-.61-.77-1.78-.77c-4.15,0-9.16.23-11.94.23-2.08,0-8-.23-13-.23-1.24,0-1.61.31-1.61.77s.6.76,1.22.76c1.32.16,2.31.23,3.31.39,2.62.39,3.63,2,3.63,6.41.08,2.85.08,5.85.08,9v4.71a2.47,2.47,0,0,1-.92,2.09c-1.16.83-3.25.91-4.32.91-16.2,0-22.84-14.72-22.84-28.53,0-7.56,1.86-13.26,4.86-16.65,3.47-3.93,8.1-5.56,13.81-5.56,10.72,0,17.58,3.7,19.05,9a11.86,11.86,0,0,1,.93,3.86c.06.61.39,1.23.91,1.23s.86-.38.86-1.62c0-10.25.69-13.41.85-14.19s-.08-1-.78-1c-2.23-.08-4.78-.62-7.4-.93a79.26,79.26,0,0,0-12.49-1.08c-5.86,0-14.19.38-22.13,5.09-7.17,4.09-13.89,12.26-13.89,25.15,0,20.51,15.05,30.22,36.71,30.22,6.94,0,14.81-1.31,18.89-2.93,1.4-.54,1.55-1,1.55-5.55Zm59.77-9.41c0,7.48-.08,12.88-.39,16.12-.23,2.61-.85,4-2.38,4.39-.86.16-1.86.24-2.62.31s-1.39.23-1.39.78.38.76,1.53.76c2.63,0,10.11-.23,11-.23.53,0,8.93.23,14.1.23,1.09,0,1.63-.23,1.63-.69s-.16-.77-1.39-.85a18.41,18.41,0,0,1-3.47-.46c-2.31-.54-2.85-2.25-3-4.24a117.67,117.67,0,0,1-.38-13v-3.94c0-.46.23-.6.62-.6h5.08a1.19,1.19,0,0,1,.92.45c1.4,2.09,3.16,5.25,6.71,11.1,3,4.86,5.48,8.18,7.94,9.65,2.71,1.78,6.1,2.54,14,2.54h6.93c.78,0,1.55-.08,1.55-.76,0-.47-.46-.78-1.31-.78-.62-.07-1.09-.07-1.93-.23-2.16-.31-4-1.62-8.09-6.18-4.71-5.39-10.35-13.64-15.05-20.42,6.64-4.09,10.34-9,10.34-15.51a13.13,13.13,0,0,0-7-11.8c-3.4-1.92-8.48-2.62-15.73-2.62-3.56,0-11,.23-12.41.23-1.09,0-8.49-.23-11.8-.23-1.16,0-1.71.23-1.71.7s.47.77,1.4.85a25.83,25.83,0,0,1,3.08.31c1.84.37,2.77,1.38,2.93,4.55.07,2.46.23,4,.23,16Zm13.27-29.84c0-.62.15-.7.46-.85a10.5,10.5,0,0,1,3.08-.31c4,0,11,2.85,11,13.8,0,5.17-1.39,8.48-3,9.72a7.75,7.75,0,0,1-4.87,1.24,13.89,13.89,0,0,1-5.93-1,1.13,1.13,0,0,1-.69-1.16Zm115.44,53.28c20.21,0,32.4-13.72,32.4-31.7,0-15.65-12.27-28.76-31.85-28.76-22.67,0-33,15-33,30.47,0,13.64,9.73,30,32.47,30m2.31-4.94c-13.25,0-19.35-13.95-19.35-28.53,0-18.28,7.94-22.21,15-22.21,13.65,0,19,14.58,19,27.38,0,21.29-9.87,23.36-14.66,23.36m98.88-32.08c0-9.87.08-13.49.23-16s.54-4.1,2.7-4.55c.77-.16,1.84-.24,2.54-.31,1-.08,1.39-.23,1.39-.85,0-.47-.39-.7-1.7-.7-2.78,0-12,.23-12.56.23s-8.49-.23-11.8-.23c-1.47,0-2.09.23-2.09.7s.46.77,1.62.85a17.73,17.73,0,0,1,3.32.54c1.78.53,2.24,1.53,2.38,3.7.24,2.46.24,4.63.24,16.57v11.73c0,11.11,3.09,16.73,7.18,20.12,4.77,4.16,11.57,5.17,18.35,5.17,5.25,0,11.25-1.08,16-5.09,7.48-6.09,7.86-15.58,7.86-24.36v-7.57c0-11.34.08-13.33.24-15.81.23-3.16.85-4.32,2.92-4.69a14.09,14.09,0,0,1,2.4-.31c1-.08,1.3-.39,1.3-.78s-.46-.77-1.62-.77c-3.77,0-8.78.23-10.17.23s-5.94-.23-10.33-.23c-1.4,0-1.78.31-1.78.77s.38.78,1.39.78c1.54.15,2,.15,2.85.31,2.55.45,3.16,1.76,3.31,4.69.16,2.48.16,4.47.16,15.81v9.26c0,7.94,0,16-4.32,19.74a14.45,14.45,0,0,1-16.2.7c-4.23-3-5.85-7.48-5.85-18.12Zm96,13.58c0,7.48-.15,13-.46,16.19-.31,2.93-1,4-2.54,4.32a20.49,20.49,0,0,1-2.32.31c-.84,0-1.46.23-1.46.78s.45.76,1.54.76c2.63,0,11-.23,11.42-.23.68,0,8.86.23,14.18.23,1.16,0,1.54-.31,1.54-.69,0-.62-.31-.85-1.46-.85a27.25,27.25,0,0,1-3.39-.38c-2.32-.47-2.86-1.94-3-4.17-.37-3.24-.37-10.25-.37-16.27V940.22c0-1.32.3-1.78.91-1.94a12,12,0,0,1,2.09-.15,9.83,9.83,0,0,1,7.33,3.16c2.77,3,3.78,7.24,3.78,12.57,0,6.94-3.09,11.95-9.49,11.95-1.38,0-1.69.31-1.69.78s.38.61.85.77a13.61,13.61,0,0,0,2.38.23c10.64,0,21.52-6.41,21.52-18.28a14,14,0,0,0-4.17-10.25c-3.09-2.85-8.17-5.33-18.66-5.33-3.55,0-7.87.23-11.57.23-1.31,0-9.18-.23-12.48-.23-1.47,0-1.7.31-1.7.77s.38.78,1.38.78a18.27,18.27,0,0,1,2.94.31c1.84.37,2.54,1.76,2.69,3.93.23,2.46.23,8.1.23,16.57Z"/><path class="cls-3" d="M911.16,215h-15.4v-8h39.49v8H919.84v40.11h-8.68Z"/><path class="cls-3" d="M943.36,207h8.75l15.82,29.33L983.83,207h8.68v48.09h-8.68V223l-15.9,29.33L952.11,223v32.13h-8.75Z"/></svg>